HIERARCHY
ROOT mixamorig:Hips
{
	OFFSET 0.000000 201.639420 0.000000
	CHANNELS 6 Xposition Yposition Zposition Xrotation Yrotation Zrotation
	JOINT mixamorig:Spine
	{
		OFFSET 0.006200 19.524994 -2.481800
		CHANNELS 3 Xrotation Yrotation Zrotation
		JOINT mixamorig:Spine1
		{
			OFFSET -0.000900 22.835007 -2.825400
			CHANNELS 3 Xrotation Yrotation Zrotation
			JOINT mixamorig:Spine2
			{
				OFFSET -0.020600 26.552490 -3.193300
				CHANNELS 3 Xrotation Yrotation Zrotation
				JOINT mixamorig:Neck
				{
					OFFSET -0.060000 30.701813 1.352200
					CHANNELS 3 Xrotation Yrotation Zrotation
					JOINT mixamorig:Head
					{
						OFFSET -0.087200 22.547607 3.670900
						CHANNELS 3 Xrotation Yrotation Zrotation
						JOINT mixamorig:HeadTop_End
						{
							OFFSET -0.830600 40.355194 7.893500
							CHANNELS 3 Xrotation Yrotation Zrotation
							End Site
							{
								OFFSET 0.000000 30.592346 0.000000
							}
						}
						JOINT mixamorig:RightEye
						{
							OFFSET -6.302100 18.118591 16.197100
							CHANNELS 3 Xrotation Yrotation Zrotation
							End Site
							{
								OFFSET 0.000000 30.592346 0.000000
							}
						}
						JOINT mixamorig:LeftEye
						{
							OFFSET 6.741500 18.382690 16.401899
							CHANNELS 3 Xrotation Yrotation Zrotation
							End Site
							{
								OFFSET 0.000000 30.592346 0.000000
							}
						}
					}
				}
				JOINT mixamorig:LeftShoulder
				{
					OFFSET 11.924900 18.230499 1.425400
					CHANNELS 3 Xrotation Yrotation Zrotation
					JOINT mixamorig:LeftArm
					{
						OFFSET 25.435989 -0.697632 -5.229300
						CHANNELS 3 Xrotation Yrotation Zrotation
						JOINT mixamorig:LeftForeArm
						{
							OFFSET 54.684776 0.000000 0.000000
							CHANNELS 3 Xrotation Yrotation Zrotation
							JOINT mixamorig:LeftHand
							{
								OFFSET 55.098175 0.000000 0.000000
								CHANNELS 3 Xrotation Yrotation Zrotation
								JOINT mixamorig:LeftHandMiddle1
								{
									OFFSET 23.369751 0.000000 0.000000
									CHANNELS 3 Xrotation Yrotation Zrotation
									JOINT mixamorig:LeftHandMiddle2
									{
										OFFSET 6.378677 0.000000 0.000000
										CHANNELS 3 Xrotation Yrotation Zrotation
										JOINT mixamorig:LeftHandMiddle3
										{
											OFFSET 6.148331 0.000000 0.000000
											CHANNELS 3 Xrotation Yrotation Zrotation
											JOINT mixamorig:LeftHandMiddle4
											{
												OFFSET 6.582504 0.000000 0.000000
												CHANNELS 3 Xrotation Yrotation Zrotation
												End Site
												{
													OFFSET -1.168900 6.395691 1.028606
												}
											}
										}
									}
								}
								JOINT mixamorig:LeftHandThumb1
								{
									OFFSET 7.235672 -3.848206 5.434273
									CHANNELS 3 Xrotation Yrotation Zrotation
									JOINT mixamorig:LeftHandThumb2
									{
										OFFSET 6.568451 -3.792297 3.792300
										CHANNELS 3 Xrotation Yrotation Zrotation
										JOINT mixamorig:LeftHandThumb3
										{
											OFFSET 6.063080 -3.500519 3.500518
											CHANNELS 3 Xrotation Yrotation Zrotation
											JOINT mixamorig:LeftHandThumb4
											{
												OFFSET 4.793182 -2.767334 2.767349
												CHANNELS 3 Xrotation Yrotation Zrotation
												End Site
												{
													OFFSET 0.101639 6.054260 1.275483
												}
											}
										}
									}
								}
								JOINT mixamorig:LeftHandIndex1
								{
									OFFSET 23.101074 -0.309540 4.992809
									CHANNELS 3 Xrotation Yrotation Zrotation
									JOINT mixamorig:LeftHandIndex2
									{
										OFFSET 6.226883 0.000000 0.000000
										CHANNELS 3 Xrotation Yrotation Zrotation
										JOINT mixamorig:LeftHandIndex3
										{
											OFFSET 6.094330 0.000000 0.000000
											CHANNELS 3 Xrotation Yrotation Zrotation
											JOINT mixamorig:LeftHandIndex4
											{
												OFFSET 5.482605 0.000000 0.000000
												CHANNELS 3 Xrotation Yrotation Zrotation
												End Site
												{
													OFFSET -1.427902 5.233032 0.797164
												}
											}
										}
									}
								}
								JOINT mixamorig:LeftHandRing1
								{
									OFFSET 22.299240 0.021149 -3.964172
									CHANNELS 3 Xrotation Yrotation Zrotation
									JOINT mixamorig:LeftHandRing2
									{
										OFFSET 6.321869 0.000000 0.000000
										CHANNELS 3 Xrotation Yrotation Zrotation
										JOINT mixamorig:LeftHandRing3
										{
											OFFSET 5.899796 0.000000 0.000000
											CHANNELS 3 Xrotation Yrotation Zrotation
											JOINT mixamorig:LeftHandRing4
											{
												OFFSET 6.517899 0.000000 0.000000
												CHANNELS 3 Xrotation Yrotation Zrotation
												End Site
												{
													OFFSET -1.637299 6.232208 0.980890
												}
											}
										}
									}
								}
								JOINT mixamorig:LeftHandPinky1
								{
									OFFSET 20.463791 -0.302338 -8.562233
									CHANNELS 3 Xrotation Yrotation Zrotation
									JOINT mixamorig:LeftHandPinky2
									{
										OFFSET 6.908646 0.000000 0.000000
										CHANNELS 3 Xrotation Yrotation Zrotation
										JOINT mixamorig:LeftHandPinky3
										{
											OFFSET 4.622849 0.000000 0.000000
											CHANNELS 3 Xrotation Yrotation Zrotation
											JOINT mixamorig:LeftHandPinky4
											{
												OFFSET 5.216080 0.000000 0.000000
												CHANNELS 3 Xrotation Yrotation Zrotation
												End Site
												{
													OFFSET -0.606308 5.116241 0.814926
												}
											}
										}
									}
								}
							}
						}
					}
				}
				JOINT mixamorig:RightShoulder
				{
					OFFSET -12.001300 18.284088 1.348900
					CHANNELS 3 Xrotation Yrotation Zrotation
					JOINT mixamorig:RightArm
					{
						OFFSET -25.308500 -0.751312 -5.164599
						CHANNELS 3 Xrotation Yrotation Zrotation
						JOINT mixamorig:RightForeArm
						{
							OFFSET -54.684429 0.000000 0.000000
							CHANNELS 3 Xrotation Yrotation Zrotation
							JOINT mixamorig:RightHand
							{
								OFFSET -55.150291 0.000000 0.000000
								CHANNELS 3 Xrotation Yrotation Zrotation
								JOINT mixamorig:RightHandMiddle1
								{
									OFFSET -23.317566 0.000000 0.000000
									CHANNELS 3 Xrotation Yrotation Zrotation
									JOINT mixamorig:RightHandMiddle2
									{
										OFFSET -6.378403 0.000000 0.000000
										CHANNELS 3 Xrotation Yrotation Zrotation
										JOINT mixamorig:RightHandMiddle3
										{
											OFFSET -6.148193 0.000000 0.000000
											CHANNELS 3 Xrotation Yrotation Zrotation
											JOINT mixamorig:RightHandMiddle4
											{
												OFFSET -6.583389 0.000000 0.000000
												CHANNELS 3 Xrotation Yrotation Zrotation
												End Site
												{
													OFFSET 1.171692 6.395905 1.029786
												}
											}
										}
									}
								}
								JOINT mixamorig:RightHandThumb1
								{
									OFFSET -7.190521 -3.860474 5.435846
									CHANNELS 3 Xrotation Yrotation Zrotation
									JOINT mixamorig:RightHandThumb2
									{
										OFFSET -6.567429 -3.791718 3.791708
										CHANNELS 3 Xrotation Yrotation Zrotation
										JOINT mixamorig:RightHandThumb3
										{
											OFFSET -6.062469 -3.500153 3.500166
											CHANNELS 3 Xrotation Yrotation Zrotation
											JOINT mixamorig:RightHandThumb4
											{
												OFFSET -4.792618 -2.767029 2.767022
												CHANNELS 3 Xrotation Yrotation Zrotation
												End Site
												{
													OFFSET -0.100327 6.053253 1.276754
												}
											}
										}
									}
								}
								JOINT mixamorig:RightHandIndex1
								{
									OFFSET -23.048981 -0.310791 4.992554
									CHANNELS 3 Xrotation Yrotation Zrotation
									JOINT mixamorig:RightHandIndex2
									{
										OFFSET -6.227539 0.000000 0.000000
										CHANNELS 3 Xrotation Yrotation Zrotation
										JOINT mixamorig:RightHandIndex3
										{
											OFFSET -6.095047 0.000000 0.000000
											CHANNELS 3 Xrotation Yrotation Zrotation
											JOINT mixamorig:RightHandIndex4
											{
												OFFSET -5.484772 0.000000 0.000000
												CHANNELS 3 Xrotation Yrotation Zrotation
												End Site
												{
													OFFSET 1.420593 5.237305 0.797056
												}
											}
										}
									}
								}
								JOINT mixamorig:RightHandRing1
								{
									OFFSET -22.246323 0.020569 -3.963762
									CHANNELS 3 Xrotation Yrotation Zrotation
									JOINT mixamorig:RightHandRing2
									{
										OFFSET -6.322128 0.000000 0.000000
										CHANNELS 3 Xrotation Yrotation Zrotation
										JOINT mixamorig:RightHandRing3
										{
											OFFSET -5.900024 0.000000 0.000000
											CHANNELS 3 Xrotation Yrotation Zrotation
											JOINT mixamorig:RightHandRing4
											{
												OFFSET -6.518356 0.000000 0.000000
												CHANNELS 3 Xrotation Yrotation Zrotation
												End Site
												{
													OFFSET 1.636398 6.232697 0.982186
												}
											}
										}
									}
								}
								JOINT mixamorig:RightHandPinky1
								{
									OFFSET -20.411011 -0.303314 -8.561701
									CHANNELS 3 Xrotation Yrotation Zrotation
									JOINT mixamorig:RightHandPinky2
									{
										OFFSET -6.907349 0.000000 0.000000
										CHANNELS 3 Xrotation Yrotation Zrotation
										JOINT mixamorig:RightHandPinky3
										{
											OFFSET -4.623840 0.000000 0.000000
											CHANNELS 3 Xrotation Yrotation Zrotation
											JOINT mixamorig:RightHandPinky4
											{
												OFFSET -5.218353 0.000000 0.000000
												CHANNELS 3 Xrotation Yrotation Zrotation
												End Site
												{
													OFFSET 0.602097 5.118835 0.816273
												}
											}
										}
									}
								}
							}
						}
					}
				}
			}
		}
	}
	JOINT mixamorig:LeftUpLeg
	{
		OFFSET 18.168400 -13.561905 -0.039000
		CHANNELS 3 Xrotation Yrotation Zrotation
		JOINT mixamorig:LeftLeg
		{
			OFFSET 0.577358 -80.825211 -3.695000
			CHANNELS 3 Xrotation Yrotation Zrotation
			JOINT mixamorig:LeftFoot
			{
				OFFSET -0.577356 -83.370262 -6.520700
				CHANNELS 3 Xrotation Yrotation Zrotation
				JOINT mixamorig:LeftToeBase
				{
					OFFSET 0.750401 -20.798306 25.135401
					CHANNELS 3 Xrotation Yrotation Zrotation
					JOINT mixamorig:LeftToe_End
					{
						OFFSET -0.000500 0.001200 19.917799
						CHANNELS 3 Xrotation Yrotation Zrotation
						End Site
						{
							OFFSET 0.000000 19.917805 0.000000
						}
					}
				}
			}
		}
	}
	JOINT mixamorig:RightUpLeg
	{
		OFFSET -18.162500 -13.585098 -0.041000
		CHANNELS 3 Xrotation Yrotation Zrotation
		JOINT mixamorig:RightLeg
		{
			OFFSET -0.595024 -80.945297 -3.631900
			CHANNELS 3 Xrotation Yrotation Zrotation
			JOINT mixamorig:RightFoot
			{
				OFFSET 0.595024 -83.218193 -6.561200
				CHANNELS 3 Xrotation Yrotation Zrotation
				JOINT mixamorig:RightToeBase
				{
					OFFSET -0.753601 -20.807106 25.115000
					CHANNELS 3 Xrotation Yrotation Zrotation
					JOINT mixamorig:RightToe_End
					{
						OFFSET 0.000299 0.001700 19.918200
						CHANNELS 3 Xrotation Yrotation Zrotation
						End Site
						{
							OFFSET 0.000000 19.918203 0.000000
						}
					}
				}
			}
		}
	}
}
MOTION
Frames: 4
Frame Time: 0.033333
-0.107237 254.119568 0.242545 -1.012002 1.623935 0.549831 -2.805614 -0.071668 -0.231833 -5.611697 -0.102273 -0.620864 -5.611690 -0.102273 -0.620864 -27.780179 0.884571 -2.478846 -5.939968 -1.809258 2.604352 -0.000002 -0.000000 -0.000000 -0.000002 -0.000000 -0.000000 -0.000002 -0.000000 -0.000000 7.248430 6.365629 32.385188 -52.895324 -36.819873 5.857830 -23.466867 -23.506870 1.478697 -3.826432 -2.003340 0.833543 -7.057160 -4.106623 -72.543965 -5.071190 -4.491937 -69.918413 0.000002 0.000003 0.000005 -0.000001 0.000000 0.000001 -23.505083 8.724699 4.055231 -11.818387 8.158939 13.633701 0.000010 0.000001 -0.000004 -0.000002 0.000003 0.000000 -0.793934 -9.944905 -73.989875 -8.742883 -2.825311 -82.562309 0.000001 0.000001 0.000003 -0.000000 0.000000 0.000003 -10.868847 6.242574 -70.785615 -0.409500 -6.819513 -77.462446 0.000003 -0.000010 -0.000003 -0.000002 -0.000002 0.000001 -15.058361 6.363977 -69.029102 0.828496 -8.182939 -68.648660 0.000001 0.000006 -0.000006 -0.000002 -0.000000 -0.000003 2.277632 -6.651290 -36.122531 -64.303936 35.764066 7.685019 -24.527621 16.756829 0.686900 10.834991 10.092999 2.135989 -13.105746 1.845234 86.654986 -5.617181 1.089123 83.764579 0.000000 -0.000003 -0.000003 0.000001 0.000000 -0.000001 -17.327362 6.468816 -26.575902 3.045375 -20.333197 1.155695 -0.000008 -0.000002 0.000001 0.000000 0.000001 0.000001 -8.189489 4.700906 83.344359 -5.502068 0.854588 81.248891 0.000007 -0.000009 -0.000002 0.000001 0.000000 -0.000001 -13.657570 -7.092605 77.657837 -0.194333 7.087313 77.421294 -0.000000 -0.000001 -0.000004 -0.000000 -0.000001 0.000001 -17.941894 -11.668122 76.734935 1.092343 11.886556 73.232810 0.000003 -0.000008 0.000006 0.000000 0.000000 -0.000002 -25.445784 9.065305 2.441344 43.892059 14.406187 1.462275 33.375156 1.633796 6.589375 -0.000001 0.000000 -0.000002 -0.000000 0.000000 -0.000001 -8.540121 -7.991352 -3.015181 26.809444 -20.226280 2.059061 44.805266 0.019799 0.100258 -0.000008 0.000004 -0.000004 -0.000000 0.000001 -0.000001 
-0.805735 254.983521 0.853636 -0.940836 1.127004 0.752211 -3.079261 -0.082475 -0.212497 -6.159048 -0.123968 -0.576454 -6.159043 -0.123968 -0.576454 -30.847566 0.326805 -0.320989 -2.072643 -0.023084 2.064796 -0.000005 0.000000 -0.000000 -0.000005 0.000000 -0.000000 -0.000005 0.000000 -0.000000 7.626382 6.858858 31.860541 -55.131269 -37.223346 2.730210 -23.055281 -24.402212 1.962728 -1.657649 -1.917354 0.433957 -7.054766 -4.108949 -72.546561 -5.073251 -4.493210 -69.909076 0.000002 0.000003 0.000011 -0.000000 0.000000 -0.000000 -23.501788 8.725085 4.047165 -11.818410 8.158935 13.633694 0.000006 0.000002 -0.000004 0.000003 0.000000 0.000000 -0.791506 -9.943095 -73.994984 -8.741758 -2.825268 -82.553826 0.000001 -0.000000 0.000005 -0.000000 -0.000001 -0.000001 -10.869081 6.243771 -70.783060 -0.412504 -6.818735 -77.482813 0.000004 -0.000009 -0.000005 0.000001 -0.000002 0.000004 -15.057272 6.367389 -69.020359 0.826389 -8.182935 -68.654220 -0.000001 0.000006 -0.000001 0.000000 -0.000000 0.000000 2.759651 -6.152675 -35.718768 -65.776743 36.101344 10.142513 -25.008871 19.056025 0.351778 12.990462 8.552140 2.606674 -13.105752 1.845227 86.654958 -5.617167 1.089145 83.764504 -0.000002 -0.000003 -0.000002 0.000001 -0.000001 -0.000000 -17.327386 6.468784 -26.575964 3.045396 -20.333169 1.155703 -0.000007 -0.000002 -0.000001 -0.000001 0.000000 0.000000 -8.189475 4.700909 83.344345 -5.502049 0.854578 81.248850 0.000006 -0.000009 -0.000002 -0.000000 0.000001 0.000001 -13.657554 -7.092619 77.657789 -0.194319 7.087333 77.421246 0.000001 -0.000002 -0.000005 -0.000001 0.000001 0.000003 -17.941862 -11.668110 76.734853 1.092359 11.886518 73.232735 0.000005 -0.000005 0.000010 -0.000003 0.000001 -0.000001 -25.093661 9.797040 3.468322 43.550693 10.561330 1.114465 31.428163 0.658362 1.966627 -0.000001 0.000000 -0.000003 -0.000001 0.000002 -0.000002 -8.236765 -8.099469 -3.154528 26.459120 -20.510587 2.021913 42.774312 -0.338017 -0.627312 -0.000008 0.000004 -0.000002 -0.000001 0.000000 0.000001 
-1.302397 256.156403 1.600830 -0.965271 0.966077 1.034114 -3.472086 -0.099497 -0.204813 -6.944817 -0.156228 -0.566078 -6.944813 -0.156228 -0.566078 -31.211202 0.025924 2.677642 1.201141 2.628886 0.953381 -0.000001 0.000000 -0.000000 -0.000001 0.000000 -0.000000 -0.000001 0.000000 -0.000000 9.527783 4.685316 32.045018 -54.807463 -33.710033 1.740700 -22.533663 -28.569469 2.546619 -0.346388 -0.229059 -0.068033 -7.055885 -4.105311 -72.530359 -5.077722 -4.493670 -69.935154 0.000005 0.000004 0.000006 0.000001 -0.000001 0.000000 -23.508874 8.726247 4.060679 -11.818439 8.158745 13.633677 0.000010 0.000001 -0.000004 -0.000001 -0.000000 -0.000000 -0.794556 -9.943710 -73.977089 -8.746379 -2.826234 -82.590921 0.000001 0.000001 0.000004 -0.000002 -0.000000 0.000000 -10.868208 6.243758 -70.779980 -0.412486 -6.821057 -77.459509 0.000003 -0.000010 -0.000002 0.000001 -0.000002 -0.000002 -15.054661 6.369190 -69.040857 0.824211 -8.183315 -68.646229 0.000002 0.000007 -0.000002 -0.000002 -0.000000 0.000000 3.649969 -5.196571 -34.863652 -67.710595 36.967251 13.102984 -25.276005 20.721356 -0.222148 16.225200 7.367921 3.253435 -13.105820 1.845027 86.655389 -5.617015 1.089119 83.762817 -0.000001 -0.000003 -0.000003 0.000000 0.000000 -0.000000 -17.327288 6.468881 -26.575752 3.045350 -20.332867 1.155810 -0.000006 -0.000003 -0.000001 0.000000 -0.000002 0.000000 -8.189457 4.700908 83.344209 -5.501989 0.854587 81.248085 0.000006 -0.000010 -0.000000 0.000001 0.000000 0.000001 -13.657545 -7.092599 77.657871 -0.194215 7.087280 77.419989 0.000001 -0.000002 -0.000002 -0.000003 -0.000000 0.000002 -17.941811 -11.668092 76.734901 1.092420 11.886520 73.231833 0.000004 -0.000003 0.000005 0.000000 -0.000001 0.000001 -24.642426 11.156029 5.909533 42.783803 4.927639 0.830338 29.342766 -0.216362 -3.592479 -0.000001 -0.000001 -0.000001 -0.000001 0.000001 -0.000000 -8.364429 -7.867843 -3.459346 27.295724 -21.653810 1.847791 39.886174 -0.421593 -0.655321 -0.000006 0.000003 -0.000003 -0.000002 0.000001 0.000001 
-1.548609 257.621826 2.427202 -1.081153 0.996210 1.429736 -3.972640 -0.140142 -0.247604 -7.946269 -0.232689 -0.637695 -7.946269 -0.232688 -0.637694 -29.314141 0.559059 5.509337 3.928958 5.823107 -0.092307 0.000001 -0.000001 -0.000001 0.000001 -0.000001 -0.000001 0.000001 -0.000001 -0.000001 12.377138 1.244042 32.256559 -54.056487 -29.416556 1.531140 -21.441478 -33.299802 3.559010 1.027317 1.871601 -0.910610 -7.062374 -4.099602 -72.526698 -5.071027 -4.489963 -69.955911 0.000001 0.000004 0.000007 -0.000001 0.000002 0.000001 -23.516661 8.724956 4.080547 -11.818450 8.158732 13.633668 0.000004 0.000003 -0.000003 0.000001 -0.000000 0.000001 -0.800717 -9.948679 -73.966796 -8.748528 -2.826160 -82.606842 0.000004 0.000000 0.000009 -0.000002 0.000000 0.000003 -10.867730 6.240386 -70.787937 -0.404091 -6.822706 -77.407442 0.000002 -0.000010 -0.000008 -0.000001 -0.000001 -0.000004 -15.058313 6.359325 -69.061327 0.830523 -8.183165 -68.632685 -0.000002 0.000009 -0.000000 0.000000 -0.000000 -0.000001 4.813542 -3.749411 -33.252445 -70.089994 38.690228 16.545081 -25.153432 21.175226 -1.024858 20.152709 6.908473 3.849882 -13.105816 1.845078 86.655375 -5.617081 1.089116 83.763411 0.000003 -0.000003 -0.000004 0.000000 -0.000000 -0.000000 -17.327282 6.468938 -26.575639 3.045332 -20.332949 1.155748 -0.000006 -0.000004 0.000000 0.000000 0.000002 0.000003 -8.189472 4.700918 83.344256 -5.501986 0.854557 81.248304 0.000006 -0.000009 -0.000005 0.000001 -0.000000 0.000000 -13.657566 -7.092605 77.657967 -0.194261 7.087307 77.420495 -0.000002 -0.000003 -0.000007 0.000001 -0.000000 0.000001 -17.941882 -11.668097 76.735058 1.092407 11.886528 73.232216 0.000006 -0.000004 0.000006 0.000001 -0.000002 0.000001 -24.068839 13.109834 9.650577 41.183469 -1.739771 0.717767 27.257864 -0.913845 -10.010435 0.000000 0.000001 -0.000000 -0.000003 0.000001 -0.000000 -8.833434 -7.199597 -3.802333 28.992575 -23.550318 1.544914 36.405086 -0.243614 0.072018 -0.000007 0.000003 -0.000004 -0.000001 -0.000000 -0.000002 
